<?xml version="1.0" standalone="no"?>
<!DOCTYPE svg PUBLIC "-//W3C//DTD SVG 20010904//EN"
 "http://www.w3.org/TR/2001/REC-SVG-20010904/DTD/svg10.dtd">
<svg version="1.0" xmlns="http://www.w3.org/2000/svg"
 width="131.000000pt" height="55.000000pt" viewBox="0 0 131.000000 55.000000"
 preserveAspectRatio="xMidYMid meet">

<g transform="translate(0.000000,55.000000) scale(0.100000,-0.100000)"
fill="#000000" stroke="none">
<path d="M1012 448 c6 -18 28 -21 28 -4 0 9 -7 16 -16 16 -9 0 -14 -5 -12 -12z"/>
<path d="M1095 440 c10 -11 20 -20 22 -20 1 0 3 9 3 20 0 14 -7 20 -22 20 -20
0 -21 -1 -3 -20z"/>
<path d="M1175 440 c10 -11 20 -20 22 -20 1 0 3 9 3 20 0 14 -7 20 -22 20 -20
0 -21 -1 -3 -20z"/>
<path d="M1095 370 c10 -11 20 -20 22 -20 1 0 3 9 3 20 0 14 -7 20 -22 20 -20
0 -21 -1 -3 -20z"/>
<path d="M1175 370 c10 -11 20 -20 22 -20 1 0 3 9 3 20 0 14 -7 20 -22 20 -20
0 -21 -1 -3 -20z"/>
<path d="M184 331 c-20 -12 -37 -34 -44 -56 -35 -105 61 -194 163 -151 20 8
37 11 37 5 0 -5 9 -9 20 -9 19 0 20 7 20 109 0 111 -10 142 -34 109 -10 -14
-14 -14 -31 -2 -27 20 -95 17 -131 -5z m135 -48 c46 -53 7 -133 -66 -133 -78
0 -109 85 -53 142 26 25 36 29 63 24 18 -3 43 -18 56 -33z"/>
<path d="M444 335 c-4 -8 -4 -47 -2 -85 4 -80 27 -120 76 -134 40 -11 78 -1
108 29 22 22 24 32 24 115 0 82 -2 91 -17 88 -15 -3 -18 -16 -21 -83 -3 -89
-17 -115 -62 -115 -53 0 -65 20 -69 114 -2 66 -6 86 -17 86 -8 0 -17 -7 -20
-15z"/>
<path d="M720 235 c0 -108 1 -115 20 -115 18 0 20 7 20 78 0 65 3 82 20 100
25 27 51 28 73 4 13 -14 17 -38 17 -100 0 -75 2 -82 20 -82 18 0 20 7 20 74 0
59 4 78 21 100 23 29 50 33 73 10 12 -12 16 -36 16 -100 0 -77 2 -84 20 -84
19 0 20 7 20 90 0 83 -2 93 -25 115 -28 29 -79 33 -113 9 -20 -14 -24 -14 -44
0 -12 9 -36 16 -53 16 -17 0 -41 -7 -53 -16 -20 -14 -22 -14 -22 0 0 9 -7 16
-15 16 -12 0 -15 -19 -15 -115z"/>
<path d="M1166 311 c-7 -10 22 -37 30 -28 9 8 -3 37 -15 37 -5 0 -12 -4 -15
-9z"/>
</g>
</svg>
